<svg xmlns="http://www.w3.org/2000/svg" viewBox="0 0 600 400" width="600" height="400">
  <defs>
    <radialGradient id="g" cx="50%" cy="40%" r="65%">
      <stop offset="0%" stop-color="#fff7ed"/>
      <stop offset="35%" stop-color="#fb923c"/>
      <stop offset="70%" stop-color="#7c2d12"/>
      <stop offset="100%" stop-color="#0a0a0a"/>
    </radialGradient>
    <linearGradient id="ground" x1="0" y1="0" x2="0" y2="1">
      <stop offset="0%" stop-color="#1f2937"/>
      <stop offset="100%" stop-color="#020617"/>
    </linearGradient>
  </defs>
  <rect width="600" height="400" fill="url(#g)"/>
  <circle cx="300" cy="160" r="90" fill="#fde68a" opacity="0.95"/>
  <circle cx="300" cy="160" r="120" fill="none" stroke="#fff7ed" stroke-opacity="0.35" stroke-width="2"/>
  <path d="M0 300 Q150 240 300 280 T600 290 L600 400 L0 400 Z" fill="url(#ground)"/>
  <g fill="#020617">
    <polygon points="80,300 140,210 200,300"/>
    <polygon points="180,310 260,180 340,310"/>
    <polygon points="320,310 410,200 500,310"/>
    <polygon points="460,310 540,230 600,310 600,310"/>
  </g>
  <g fill="#f8fafc" opacity="0.8">
    <circle cx="60" cy="60" r="2"/>
    <circle cx="120" cy="40" r="1.5"/>
    <circle cx="200" cy="80" r="2"/>
    <circle cx="500" cy="50" r="2"/>
    <circle cx="540" cy="100" r="1.5"/>
    <circle cx="420" cy="30" r="1.5"/>
    <circle cx="380" cy="80" r="1"/>
  </g>
</svg>
