<svg xmlns="http://www.w3.org/2000/svg" version="1.1" xmlns:xlink="http://www.w3.org/1999/xlink" width="1000" height="1000"><metadata><rdf:RDF xmlns:rdf="http://www.w3.org/1999/02/22-rdf-syntax-ns#" xmlns:dc="http://purl.org/dc/elements/1.1/"><rdf:Description><dc:creator>RealFaviconGenerator</dc:creator><dc:source>https://realfavicongenerator.net</dc:source></rdf:Description></rdf:RDF></metadata><g clip-path="url(#SvgjsClipPath1279)"><rect width="1000" height="1000" fill="#171414"></rect><g transform="matrix(20.833333333333332,0,0,20.833333333333332,0,0)"><svg xmlns="http://www.w3.org/2000/svg" viewBox="0 0 48 48" width="48" height="48"><rect width="48" height="48" rx="10" fill="#111111"></rect><rect x="13" y="5" width="7" height="7" rx="1" fill="#B54B00"></rect><rect x="21" y="5" width="7" height="7" rx="1" fill="#B54B00"></rect><rect x="29" y="5" width="7" height="7" rx="1" fill="#B54B00"></rect><rect x="5" y="13" width="7" height="7" rx="1" fill="#B54B00"></rect><rect x="5" y="21" width="7" height="7" rx="1" fill="#B54B00"></rect><rect x="21" y="21" width="7" height="7" rx="1" fill="#B54B00"></rect><rect x="29" y="21" width="7" height="7" rx="1" fill="#B54B00"></rect><rect x="37" y="21" width="7" height="7" rx="1" fill="#B54B00"></rect><rect x="5" y="29" width="7" height="7" rx="1" fill="#B54B00"></rect><rect x="37" y="29" width="7" height="7" rx="1" fill="#B54B00"></rect><rect x="13" y="37" width="7" height="7" rx="1" fill="#B54B00"></rect><rect x="21" y="37" width="7" height="7" rx="1" fill="#B54B00"></rect><rect x="29" y="37" width="7" height="7" rx="1" fill="#B54B00"></rect></svg></g></g><defs><clipPath id="SvgjsClipPath1279"><rect width="1000" height="1000" x="0" y="0" rx="250" ry="250"></rect></clipPath></defs></svg>