<svg xmlns="http://www.w3.org/2000/svg" viewBox="0 0 600 400" width="600" height="400">
  <defs>
    <linearGradient id="bg" x1="0" y1="0" x2="0" y2="1">
      <stop offset="0%" stop-color="#020617"/>
      <stop offset="100%" stop-color="#0f172a"/>
    </linearGradient>
    <linearGradient id="glyph" x1="0" y1="0" x2="1" y2="1">
      <stop offset="0%" stop-color="#f8fafc"/>
      <stop offset="100%" stop-color="#94a3b8"/>
    </linearGradient>
    <linearGradient id="accent" x1="0" y1="0" x2="1" y2="0">
      <stop offset="0%" stop-color="#22d3ee"/>
      <stop offset="100%" stop-color="#a78bfa"/>
    </linearGradient>
  </defs>
  <rect width="600" height="400" fill="url(#bg)"/>
  <g stroke="#1e293b" stroke-width="1">
    <path d="M0 80 H600"/>
    <path d="M0 160 H600"/>
    <path d="M0 240 H600"/>
    <path d="M0 320 H600"/>
    <path d="M100 0 V400"/>
    <path d="M200 0 V400"/>
    <path d="M300 0 V400"/>
    <path d="M400 0 V400"/>
    <path d="M500 0 V400"/>
  </g>
  <g fill="url(#glyph)" font-family="ui-monospace, monospace" font-weight="700" text-anchor="middle">
    <text x="300" y="240" font-size="220">@</text>
  </g>
  <g fill="url(#accent)" opacity="0.9" font-family="ui-monospace, monospace" font-size="14">
    <text x="40" y="40">0xGLYPH</text>
    <text x="40" y="380">// 600 x 400</text>
    <text x="560" y="380" text-anchor="end">ASCII.SRC</text>
  </g>
  <rect x="40" y="350" width="80" height="2" fill="url(#accent)"/>
  <rect x="480" y="350" width="80" height="2" fill="url(#accent)"/>
  <g fill="#f8fafc" opacity="0.85">
    <circle cx="80" cy="120" r="1.5"/>
    <circle cx="520" cy="200" r="1.5"/>
    <circle cx="160" cy="300" r="1"/>
    <circle cx="440" cy="100" r="1"/>
  </g>
</svg>
