<svg xmlns="http://www.w3.org/2000/svg" viewBox="0 0 600 400" width="600" height="400">
  <defs>
    <radialGradient id="bg" cx="50%" cy="40%" r="80%">
      <stop offset="0%" stop-color="#1e293b"/>
      <stop offset="100%" stop-color="#020617"/>
    </radialGradient>
    <radialGradient id="rim" cx="35%" cy="35%" r="60%">
      <stop offset="0%" stop-color="#fef3c7"/>
      <stop offset="40%" stop-color="#fbbf24"/>
      <stop offset="80%" stop-color="#7c2d12"/>
      <stop offset="100%" stop-color="#0a0a0a"/>
    </radialGradient>
    <linearGradient id="shoulders" x1="0" y1="0" x2="0" y2="1">
      <stop offset="0%" stop-color="#111827"/>
      <stop offset="100%" stop-color="#020617"/>
    </linearGradient>
  </defs>
  <rect width="600" height="400" fill="url(#bg)"/>
  <ellipse cx="300" cy="200" rx="220" ry="180" fill="#0f172a" opacity="0.6"/>
  <path d="M180 360 Q300 260 420 360 L420 400 L180 400 Z" fill="url(#shoulders)"/>
  <ellipse cx="300" cy="180" rx="115" ry="140" fill="url(#rim)"/>
  <ellipse cx="300" cy="180" rx="100" ry="130" fill="#1c1917"/>
  <ellipse cx="265" cy="170" rx="14" ry="9" fill="#f8fafc"/>
  <ellipse cx="335" cy="170" rx="14" ry="9" fill="#f8fafc"/>
  <circle cx="265" cy="172" r="5" fill="#0a0a0a"/>
  <circle cx="335" cy="172" r="5" fill="#0a0a0a"/>
  <path d="M275 235 Q300 250 325 235" stroke="#f8fafc" stroke-width="3" fill="none" stroke-linecap="round"/>
  <path d="M225 130 Q260 95 300 110" stroke="#fde68a" stroke-width="4" fill="none" stroke-linecap="round" opacity="0.7"/>
  <path d="M375 130 Q340 95 300 110" stroke="#fde68a" stroke-width="4" fill="none" stroke-linecap="round" opacity="0.7"/>
</svg>
